{"title":"WWE.Night.Of.Champions.2013.PPV.720p.x264-NATE [PublicHD]","uid":8923772,"size":4503835454,"categoryP":"video","categoryS":"hd___tv_shows","magnet":"?xt=urn:btih:aa6171a526bf7a9fec5673ed5d5739baf2d0c604&amp;dn=WWE.Night.Of.Champions.2013.PPV.720p.x264-NATE+%5BPublicHD%5D&amp;tr=udp%3A%2F%2Ftracker.openbittorrent.com%3A80&amp;tr=udp%3A%2F%2Fopen.demonii.com%3A1337&amp;tr=udp%3A%2F%2Ftracker.coppersurfer.tk%3A6969&amp;tr=udp%3A%2F%2Fexodus.desync.com%3A6969","seeders":1,"leechers":0,"uploader":"DibyaTPB","files":3,"time":1379316417,"description":"                PublicHD - High-Definition Bittorrent Community\n      \n                           \n    \n              ----------------------------------------------------\n\nGeneral\nComplete name                            : C:dumpWWE.Night.Of.Champions.2013.PPV.720p.x264-NATE.mp4\nFormat                                   : MPEG-4\nFormat profile                           : Base Media\nCodec ID                                 : isom\nFile size                                : 4.19 GiB\nDuration                                 : 2h 45mn\nOverall bit rate mode                    : Variable\nOverall bit rate                         : 3 623 Kbps\nEncoded date                             : UTC 2013-09-16 03:48:29\nTagged date                              : UTC 2013-09-16 03:48:29\n\nVideo\nID                                       : 1\nFormat                                   : AVC\nFormat/Info                              : Advanced Video Codec\nFormat profile                           : &lt;a class=&quot;__cf_email__&quot; href=&quot;/cdn-cgi/l/email-protection&quot; data-cfemail=&quot;5a173b33341a166e746b&quot;&gt;[email&amp;#160;protected]&lt;/a&gt;&lt;script cf-hash='f9e31' type=&quot;text/javascript&quot;&gt;\n/* &lt;![CDATA[ */!function(){try{var t=&quot;currentScript&quot;in document?document.currentScript:function(){for(var t=document.getElementsByTagName(&quot;script&quot;),e=t.length;e--;)if(t[e].getAttribute(&quot;cf-hash&quot;))return t[e]}();if(t&amp;&amp;t.previousSibling){var e,r,n,i,c=t.previousSibling,a=c.getAttribute(&quot;data-cfemail&quot;);if(a){for(e=&quot;&quot;,r=parseInt(a.substr(0,2),16),n=2;a.length-n;n+=2)i=parseInt(a.substr(n,2),16)^r,e+=String.fromCharCode(i);e=document.createTextNode(e),c.parentNode.replaceChild(e,c)}}}catch(u){}}();/* ]]&gt; */&lt;/script&gt;\nFormat settings, CABAC                   : Yes\nFormat settings, ReFrames                : 2 frames\nCodec ID                                 : avc1\nCodec ID/Info                            : Advanced Video Coding\nDuration                                 : 2h 45mn\nBit rate                                 : 3 463 Kbps\nMaximum bit rate                         : 7 872 Kbps\nWidth                                    : 1 280 pixels\nHeight                                   : 720 pixels\nDisplay aspect ratio                     : 16:9\nFrame rate mode                          : Variable\nFrame rate                               : 25.000 fps\nMinimum frame rate                       : 8.697 fps\nMaximum frame rate                       : 25.013 fps\nColor space                              : YUV\nChroma subsampling                       : 4:2:0\nBit depth                                : 8 bits\nScan type                                : Progressive\nBits/(Pixel*Frame)                       : 0.150\nStream size                              : 4.01 GiB (96%)\nEncoded date                             : UTC 2013-09-16 00:47:57\nTagged date                              : UTC 2013-09-16 03:50:02\n\nAudio\nID                                       : 2\nFormat                                   : AAC\nFormat/Info                              : Advanced Audio Codec\nFormat profile                           : LC\nCodec ID                                 : 40\nDuration                                 : 2h 45mn\nSource duration                          : 2h 45mn\nBit rate mode                            : Variable\nBit rate                                 : 157 Kbps\nMaximum bit rate                         : 172 Kbps\nChannel(s)                               : 2 channels\nChannel positions                        : Front: L R\nSampling rate                            : 48.0 KHz\nCompression mode                         : Lossy\nDelay relative to video                  : 63ms\nStream size                              : 187 MiB (4%)\nSource stream size                       : 187 MiB (4%)\nEncoded date                             : UTC 2013-09-16 00:47:57\nTagged date                              : UTC 2013-09-16 03:50:02\n\n","torrent":{"xt":"urn:btih:aa6171a526bf7a9fec5673ed5d5739baf2d0c604","amp;dn":"WWE.Night.Of.Champions.2013.PPV.720p.x264-NATE+%5BPublicHD%5D","amp;tr":["udp%3A%2F%2Ftracker.openbittorrent.com%3A80","udp%3A%2F%2Fopen.demonii.com%3A1337","udp%3A%2F%2Ftracker.coppersurfer.tk%3A6969","udp%3A%2F%2Fexodus.desync.com%3A6969"],"infoHash":"aa6171a526bf7a9fec5673ed5d5739baf2d0c604","infoHashBuffer":{"type":"Buffer","data":[170,97,113,165,38,191,122,159,236,86,115,237,93,87,57,186,242,208,198,4]},"announce":[],"urlList":[]}}